<svg id="Layer_1" data-name="Layer 1" xmlns="http://www.w3.org/2000/svg" viewBox="0 0 886.31 173.21"><defs><style>.cls-1{fill:#a8a8a8}.cls-2{fill:none;stroke:#a8a8a8;stroke-miterlimit:10;stroke-width:2.8px}.cls-3{fill:#7acccd}.cls-4{fill:#bad656}.cls-5{fill:#d45056}</style></defs><title>FreshBoyAccentClassicBuntings1</title><path class="cls-1" d="M57.09 30.18l-3.66-1.31-8-3-11.61-4.34a1.4 1.4 0 1 1 1-2.62l11.6 4.35 8 3L58 27.55z" transform="translate(-18.46 -3.61)"/><path class="cls-1" d="M34.42 19.21a.75.75 0 0 1-1.38.24.37.37 0 0 1-.39.21 11.94 11.94 0 0 1-8.47-6.41c-1.31-2.53-2.42-6.71.21-8.78s5.84-.28 7.46 1.93c2.66 3.6 3.22 8.6 2.57 12.81zm-1.51-.33A.35.35 0 0 1 33 19a18 18 0 0 0-.95-9 10.31 10.31 0 0 0-1.93-3.37c-1.88-2-4.91-1.83-5.57 1C24 10 25.89 13 27.37 14.78a17.38 17.38 0 0 0 5.54 4.1z" transform="translate(-18.46 -3.61)"/><path class="cls-1" d="M33.29 20.36A.75.75 0 0 1 33 19a13.27 13.27 0 0 1 6.38-9.55C42 7.92 45.8 6.8 48.26 9.2c2.93 2.86 0 6.36-2.46 8.2a16.21 16.21 0 0 1-12.51 2.96zm12.92-11c-2.66-1.36-6.57 1.44-8.32 3.13a14.16 14.16 0 0 0-3.68 6.45 16.29 16.29 0 0 0 8.3-1.16c2.8-1.27 8.67-5.78 3.7-8.42z" transform="translate(-18.46 -3.61)"/><path class="cls-1" d="M34.63 19.19C32 18.8 30 21.29 29 23.92c-.87 2.4-.87 4.88-1.47 7.32-.82 3.35-4.74 9.35-8 5.14-.41-.53-1.21.14-1.08.77.83 4.1 5.53 2.43 7.75.08 4.67-5 1.47-14.48 8.37-17.19.43-.14.43-.79.06-.85z" transform="translate(-18.46 -3.61)"/><path class="cls-1" d="M34 20.58a.5.5 0 1 0-.9-.45c-1.41 2.82-.78 5.77.67 8.47.9 1.67 2.1 3.1 3 4.74a8.3 8.3 0 0 1 1.43 4.46c-.12 3-1.28 5.64-4.32 3-.6-.52-1.26.62-.86 1.27 2.5 4 6.71.22 6.78-3.63.2-6.69-8.44-11.15-5.8-17.86z" transform="translate(-18.46 -3.61)"/><path class="cls-2" d="M57.56 28.87l14 5 16.25 5.37 10.08 3c3.56 1 7.28 2.22 11.2 3.29 15.71 4.21 34.13 8.84 54.13 12.55L178.48 61c5.16.85 10.4 1.63 15.67 2.46s10.58 1.7 15.93 2.44l16.11 2c5.38.66 10.75 1.37 16.12 2l16 1.55 15.78 1.53 3.91.34 3.87.28 7.66.55 29.22 2.09L345 77.53l11.65.57c3.7.17 7.21.39 10.51.46l17.09.5 14.89.43" transform="translate(-18.46 -3.61)"/><path class="cls-3" d="M160.53 58.74s-4.22 5.26-10.75 13.11-15.41 17.9-24.69 28l-7 7.53-3.46 3.68-3.4 3.51a944.829 944.829 0 0 1-24.95 24.63L85 134.64c-.83-2.89-2-7.11-3.3-12.16-2.63-10.11-5.94-23.48-8.8-36.82S67.65 58.85 66 48.89c-.82-5-1.45-9.2-1.89-12.11l-.68-4.59 4.08 1.46c2.58 1 6.34 2.15 10.82 3.65s9.7 3.28 15.38 4.9l8.73 2.6 4.49 1.34c1.51.44 3 .81 4.56 1.22L129.36 52l15.75 3.55L151.4 57c1.87.44 3.52.69 4.87 1z" transform="translate(-18.46 -3.61)"/><path class="cls-4" d="M273.22 74L264 88.08a1956.4 1956.4 0 0 1-20.84 30.88l-5.79 8.36-2.86 4.09-2.82 3.93c-3.72 5.16-7.23 10-10.27 14.1-6.08 8.24-10.23 13.72-10.23 13.72s-2.65-6.33-6.48-15.81c-1.92-4.75-4.11-10.23-6.44-16.22s-4.77-12.41-7.15-18.81a1301.91 1301.91 0 0 1-12.47-35.08c-1.62-4.74-2.93-8.82-3.84-11.63l-1.41-4.43 4.25.82c2.71.51 6.6 1.05 11.27 1.8l15.94 2.48c2.91.49 5.94.86 9 1.24l9.32 1.16 18.34 2.28 16 1.55z" transform="translate(-18.46 -3.61)"/><path class="cls-5" d="M386.71 80.29l-8.35 14.65c-5 8.76-11.8 20.55-18.69 32.16-13.76 23.17-28.15 46.3-28.15 46.3l-7.37-15.27-7.44-15.64c-2.7-5.71-5.59-11.94-8.42-18.09-5.68-12.34-11.21-24.68-15.29-33.92l-6.73-15.4 15.68 1.12L318 77.35l18.45.92 18.45.91 8.49.42 7.61.23z" transform="translate(-18.46 -3.61)"/><path class="cls-2" d="M399.13 79.49l14.87.43 39.28.45c32.5.42 75.88-.65 119.13-3.63l4.06-.24 4-.32 8.09-.63 16.06-1.26c2.66-.22 5.31-.39 7.94-.65l7.85-.76 15.4-1.49c10.12-.9 19.87-2.14 29.12-3.17l13.48-1.55L691.05 65c8.06-1.08 15.45-2 22-2.94l16.95-2.5 10.89-1.62 3.84-.62" transform="translate(-18.46 -3.61)"/><path class="cls-3" d="M506.32 81.08l-2.05 4.14-5.47 10.89c-4.56 9-10.77 21-17.17 33-3.2 6-6.44 12-9.52 17.65L463.78 162l-8.16 14.8s-13-24-25.41-47.91c-6.24-12-12.38-23.94-16.94-33l-7.55-15.11L410 81l5 .13 6.43.07 34.57.36 9.38.1 4.6.05 4.49-.07 16.12-.28 11.4-.19 3.19-.05z" transform="translate(-18.46 -3.61)"/><path class="cls-4" d="M619.78 74.11l-6.52 15.58c-4 9.3-9.31 21.64-14.81 34s-11.13 24.76-15.42 34l-5.23 11.21-2 4.22s-14.8-23-28.87-46c-3.52-5.73-7-11.58-10.28-17l-8.82-14.93-8.46-14.57 15.72-.62c2.36-.1 4.91-.16 7.61-.32l8.48-.5 18.44-1.09c6.28-.32 12.55-.85 18.43-1.31l16.06-1.26 6.42-.5 4.94-.47z" transform="translate(-18.46 -3.61)"/><path class="cls-5" d="M732.61 60.34L727 76.22c-3.39 9.51-8 22.31-12.74 34.95-9.47 25.27-19.62 50.62-19.62 50.62l-2.75-3.79c-1.75-2.39-4.25-5.83-7.22-10-6-8.31-13.82-19.39-21.55-30.49s-15.33-22.17-21-30.64l-9.35-14 4.3-.42c2.74-.29 6.66-.59 11.34-1.15l16-1.83 9-1 4.64-.53 4.67-.61 18.31-2.41 8.43-1.11c2.68-.36 5.2-.76 7.53-1.1z" transform="translate(-18.46 -3.61)"/><path class="cls-2" d="M744.69 57.32l23-3.81c3.45-.55 7.17-1.24 11.1-2l12.38-2.27c8.6-1.51 17.71-3.42 26.85-5.24s18.22-3.86 26.75-5.72 16.44-3.83 23.24-5.44c3.39-.83 6.52-1.54 9.26-2.26l7.11-1.88 6.19-1.63" transform="translate(-18.46 -3.61)"/><path class="cls-3" d="M855.82 37s-1.69 6.56-4.37 16.27S845.09 76 841.21 89c-1.93 6.54-3.91 13-5.79 19.08l-5.21 16.61L825 141l-3-3.57c-1.93-2.28-4.67-5.49-7.94-9.44-6.54-7.88-15.17-18.4-23.64-29L778 83.5c-3.92-5-7.55-9.68-10.64-13.68L757.1 56.43l15.51-2.59 15.85-2.91c5.8-1.07 12-2.15 18.15-3.44l18.11-3.65c5.78-1.17 11.14-2.43 15.75-3.42L851.61 38c1.35-.29 2.39-.56 3.11-.73z" transform="translate(-18.46 -3.61)"/><path class="cls-1" d="M889.15 26.89a.76.76 0 0 0 1.37.44.4.4 0 0 0 .38.27 11 11 0 0 0 9-5.8c1.48-2.57 2.77-6.93.28-9.41-2.33-2.34-5.7-.9-7.47 1.23-2.93 3.49-3.88 8.67-3.56 13.27zm1.54-.15a.34.34 0 0 0-.11.07 20.23 20.23 0 0 1 1.63-9.48 10.56 10.56 0 0 1 2.16-3.33c2-1.92 4.95-1.42 5.44 1.7.41 2.59-1.64 5.67-3.24 7.39a16.23 16.23 0 0 1-5.88 3.64z" transform="translate(-18.46 -3.61)"/><path class="cls-1" d="M888.93 27.83a.77.77 0 0 0 .47-1.38 15.42 15.42 0 0 0-4.95-11.32c-2.33-2.15-6-4.18-8.79-2.25-3.37 2.3-1 6.58 1.16 9.05 3.02 3.37 7.63 5.86 12.11 5.9zm-11.25-14.32c2.87-.83 6.33 3 7.82 5.14a16.39 16.39 0 0 1 2.71 7.5 17.12 17.12 0 0 1-8.16-3.09c-2.6-1.94-7.73-7.99-2.37-9.55z" transform="translate(-18.46 -3.61)"/><path class="cls-1" d="M889.41 28.38c-.22-.76.69-1.05.94-.37 1.19 3.18.32 6.25-1.39 8.93-1.06 1.67-2.39 3-3.49 4.68a9 9 0 0 0-1.84 4.58c-.16 3.27.78 6.19 4.09 3.76.65-.48 1.22.82.75 1.46-2.9 4-6.8-.6-6.51-4.72.48-7.16 9.61-10.83 7.45-18.32z" transform="translate(-18.46 -3.61)"/><path class="cls-1" d="M904.2 43.62c-.56-1-2.34-.28-1.77.74 1.89 5-6.4 4.27-6.31-.92a7.7 7.7 0 0 1-.39-2.05c-.19-1.31-.2-2.64-.38-4a28.67 28.67 0 0 0-1.49-6.3c-.78-2.06-1.87-4.61-4.48-4.17a.2.2 0 0 0-.1.35c3.91 3.67 4.16 9.35 4.78 14.29.32 2.54.94 5.4 3.3 6.95a5.33 5.33 0 0 0 5.71.08 3.56 3.56 0 0 0 1.13-4.97z" transform="translate(-18.46 -3.61)"/></svg>