<?xml version="1.0" encoding="iso-8859-1"?>
<!DOCTYPE svg PUBLIC "-//W3C//DTD SVG 1.1//EN" "http://www.w3.org/Graphics/SVG/1.1/DTD/svg11.dtd">
<svg xmlns="http://www.w3.org/2000/svg" xmlns:xlink="http://www.w3.org/1999/xlink" version="1.1" viewBox="0 0 479.052 479.052" enable-background="new 0 0 479.052 479.052" width="512px" height="512px">
  <g>
    <path d="m239.526,227.34c-18.472,0-33.5,15.028-33.5,33.5v31.66c0,6.904 5.596,12.5 12.5,12.5h42c6.904,0 12.5-5.596 12.5-12.5v-31.66c0-18.473-15.027-33.5-33.5-33.5zm8.5,52.66h-17v-19.16c0-4.687 3.813-8.5 8.5-8.5s8.5,3.813 8.5,8.5v19.16z" fill="#f69a8f"/>
    <path d="m306.526,372c-6.904,0-12.5,5.596-12.5,12.5v32c0,6.904 5.596,12.5 12.5,12.5s12.5-5.596 12.5-12.5v-32c0-6.904-5.596-12.5-12.5-12.5z" fill="#f69a8f"/>
    <path d="m172.526,372c-6.904,0-12.5,5.596-12.5,12.5v32c0,6.904 5.596,12.5 12.5,12.5s12.5-5.596 12.5-12.5v-32c0-6.904-5.596-12.5-12.5-12.5z" fill="#f69a8f"/>
    <path d="m248.369,127.335c2.32-2.32 3.66-5.54 3.66-8.84 0-3.29-1.34-6.51-3.66-8.83-2.33-2.33-5.55-3.67-8.84-3.67s-6.51,1.34-8.84,3.67c-2.33,2.32-3.66,5.54-3.66,8.83 0,3.3 1.33,6.52 3.66,8.84 2.33,2.33 5.55,3.67 8.84,3.67s6.51-1.34 8.84-3.67z" fill="#f69a8f"/>
    <path d="m387.603,454.052h-33.903v-172.544l25.301,23.991c2.418,2.292 5.511,3.43 8.599,3.43 3.311,0 6.615-1.307 9.072-3.899 4.75-5.01 4.54-12.921-0.469-17.671l-92.742-87.94v-90.159c0-3.522-1.486-6.88-4.092-9.249l-47.344-43.04v-15.971h2.5c6.904,0 12.5-5.596 12.5-12.5s-5.595-12.5-12.499-12.5h-2.5v-3.5c0-6.904-5.596-12.5-12.5-12.5s-12.5,5.596-12.5,12.5v3.5h-2.5c-6.904,0-12.5,5.596-12.5,12.5s5.596,12.5 12.5,12.5h2.5v15.97l-47.344,43.04c-2.606,2.369-4.092,5.728-4.092,9.249v90.159l-92.742,87.94c-5.009,4.75-5.22,12.662-0.469,17.671 4.75,5.009 12.662,5.22 17.671,0.469l25.301-23.991v172.544h-33.901c-6.903,0-12.5,5.597-12.5,12.5s5.597,12.5 12.5,12.5h296.153c6.903,0 12.5-5.597 12.5-12.5s-5.597-12.499-12.5-12.499zm-187.013-339.263l38.936-35.396 38.936,35.396v60.924l-30.334-28.764c-4.822-4.573-12.38-4.573-17.202,0l-30.335,28.764v-60.924zm21.435,339.263v-63.552c0-9.649 7.851-17.5 17.5-17.5s17.5,7.851 17.5,17.5v63.553h-35zm60-.001v-63.552c0-23.435-19.065-42.5-42.5-42.5-23.435,0-42.5,19.065-42.5,42.5v63.553h-46.674v-196.25l89.174-84.557 89.174,84.557v196.25h-46.674z" fill="#f69a8f"/>
  </g>
</svg>
