<?xml version="1.0" encoding="UTF-8" standalone="no"?>
<!-- Created with Inkscape (http://www.inkscape.org/) -->

<svg
   xmlns:dc="http://purl.org/dc/elements/1.1/"
   xmlns:cc="http://creativecommons.org/ns#"
   xmlns:rdf="http://www.w3.org/1999/02/22-rdf-syntax-ns#"
   xmlns:svg="http://www.w3.org/2000/svg"
   xmlns="http://www.w3.org/2000/svg"
   xmlns:sodipodi="http://sodipodi.sourceforge.net/DTD/sodipodi-0.dtd"
   xmlns:inkscape="http://www.inkscape.org/namespaces/inkscape"
   id="svg2"
   sodipodi:version="0.32"
   inkscape:version="0.47 r22583"
   width="661.04639"
   height="794.90039"
   version="1.0"
   sodipodi:docname="ZZ2.svg">
  <metadata
     id="metadata7">
    <rdf:RDF>
      <cc:Work
         rdf:about="">
        <dc:format>image/svg+xml</dc:format>
        <dc:type
           rdf:resource="http://purl.org/dc/dcmitype/StillImage" />
      </cc:Work>
    </rdf:RDF>
  </metadata>
  <defs
     id="defs5">
    <inkscape:perspective
       sodipodi:type="inkscape:persp3d"
       inkscape:vp_x="0 : 400 : 1"
       inkscape:vp_y="0 : 1000 : 0"
       inkscape:vp_z="667 : 400 : 1"
       inkscape:persp3d-origin="333.5 : 266.66667 : 1"
       id="perspective10" />
  </defs>
  <sodipodi:namedview
     inkscape:window-height="1004"
     inkscape:window-width="1280"
     inkscape:pageshadow="2"
     inkscape:pageopacity="0.0"
     guidetolerance="10.0"
     gridtolerance="10.0"
     objecttolerance="10.0"
     borderopacity="1.0"
     bordercolor="#666666"
     pagecolor="#ffffff"
     id="base"
     showguides="true"
     inkscape:guide-bbox="true"
     inkscape:zoom="0.62786101"
     inkscape:cx="283.52365"
     inkscape:cy="-120.79432"
     inkscape:window-x="-8"
     inkscape:window-y="-8"
     inkscape:current-layer="svg2"
     showgrid="false"
     inkscape:window-maximized="1" />
  <path
     style="fill:#d00c33;fill-opacity:1;fill-rule:evenodd;stroke:none"
     d="M 362.60229,0.94999999 348.953,2.46418 l -31.81952,30.80286 -22.73441,5.55921 -21.71775,2.0117 -23.72943,27.79613 -19.70605,42.41881 -15.14185,19.18688 -24.76773,15.16348 -18.68937,3.52589 -20.70108,-5.5376 -8.58758,1.51419 -27.77449,10.5993 -25.265264,-6.05674 -33.333702,37.87625 -21.717739,39.90959 -2.011702,19.1869 5.55922,4.54255 3.525889,-0.49752 0.497517,-11.61596 7.592558,16.15852 26.260294,28.79114 8.587593,-5.55921 -0.51915,-14.64434 -4.542554,-4.54255 -12.113481,0.99503 6.05674,-4.54256 0,-4.04503 -2.011703,-3.02837 1.514185,-2.0117 0.497518,-9.08512 -1.514184,-8.58759 16.677665,-13.6493 0.497519,-9.08511 7.570925,-11.61595 8.090076,0 14.64434,-9.60426 0,-2.01171 26.2603,-4.30461 11.11844,-6.31632 13.62767,12.39469 3.54751,0.23795 22.73441,-9.58263 33.83121,-6.07837 13.13015,0 7.57094,-6.55426 12.63262,7.57092 -6.05674,4.04504 -24.2486,2.0117 -13.13014,18.68938 -3.52588,0 1.75212,-9.34469 -30.04576,-2.7688 -16.15851,12.11349 -7.57093,14.1468 5.5376,12.11349 -7.57093,10.10178 3.02837,10.62092 6.05674,2.53085 -8.06844,13.62766 -1.51419,6.57589 5.04008,5.5376 7.0734,-10.59931 6.57589,8.09008 -2.53085,21.71775 11.61595,2.50922 2.53087,2.03333 -4.54257,6.55426 -12.1351,0 -2.53086,-2.50923 -0.49751,-20.72269 -15.89895,2.27128 -7.83049,11.87553 -3.02838,-12.63263 11.09682,-15.14185 3.02837,-12.63263 -9.3447,-19.44647 -20.20355,0.49753 -12.37304,18.45142 7.07341,5.55922 -4.28299,4.02341 -9.34468,-0.49753 -6.05675,12.63265 -12.135116,4.54255 10.101786,12.63263 1.01666,3.52588 -5.061703,15.66101 -13.627668,-2.01171 -6.05674,-13.6493 -12.135111,-1.01666 -16.158519,-8.06845 -10.101777,1.01667 -9.604259,-11.11844 -1.514185,-18.68937 -6.05674,4.54254 -5.040074,14.14683 -6.078371,50.24931 -0.497518,6.05674 9.604259,-10.85887 11.356387,6.07837 -7.570924,-0.25958 -1.773759,2.7688 13.649295,18.68937 -4.045036,6.57589 -6.57589,-7.0734 -13.130147,-7.57094 1.514185,41.9213 -8.587592,18.17022 0.2595747,26.77945 4.8021293,2.0117 3.287944,-2.27129 -0.259575,-27.01737 20.203556,22.21525 13.130147,29.80782 -25.762776,18.68937 -6.554258,-32.83619 -7.8305001,2.79044 7.3113501,30.54327 0,21.22021 L 0.94999999,534.3325 16.611,545.94846 l 11.096812,16.15852 6.078372,-4.04505 -9.604259,-17.67269 0.497517,-7.07341 6.575891,0 15.660999,27.27697 23.231924,5.55921 4.045037,3.52589 3.525889,31.81951 -3.525889,16.15852 5.537592,20.20356 -8.068444,28.7912 5.040073,23.751 -3.02837,8.5877 6.575889,3.5258 18.689384,-2.5093 14.644323,1.5142 17.17519,9.5827 21.71774,5.0616 2.53085,12.6111 3.52589,-3.0284 15.16347,2.5309 5.04008,-7.5709 6.05675,3.5258 11.11843,-12.6109 7.07341,0 5.55923,-13.1518 6.55425,4.5641 -4.54255,5.5376 1.01667,8.5876 8.06844,1.0167 7.07341,8.5877 6.07837,-10.5995 -7.59256,-8.0899 6.5759,-2.531 6.55425,4.5642 15.16348,0.4976 -7.0734,3.0284 2.53085,4.045 11.35639,2.0117 12.37304,-5.5592 0,-13.6277 -27.27696,-32.3387 -20.20355,-6.5542 -12.11348,5.0401 2.0117,2.5309 4.04504,3.5475 2.53086,4.0233 10.10178,4.045 8.58758,12.6327 -6.05674,-4.0451 -5.55922,0.4975 -2.03333,-2.5091 -15.14185,-8.0902 -9.60427,-8.5874 -8.58758,4.0449 -6.05675,-0.4975 0,-6.576 8.09008,-2.0116 2.0117,-2.5308 -4.54255,-12.6326 13.13014,-16.65611 6.57589,2.50923 11.09682,-17.67271 -8.82554,-8.84716 -3.04999,-35.08583 9.86383,-8.34965 -6.05674,-9.08512 -11.61597,-0.25957 8.58759,-6.05674 11.61596,0.25958 20.20356,-19.94398 0.99503,-3.54753 -13.88724,-3.28793 -3.02837,-10.59931 -14.9039,-7.0734 7.57093,-2.27129 23.75107,8.09008 24.7461,-6.57588 5.55924,-8.09008 -3.02837,-5.53759 3.52588,-12.13511 -20.70107,-8.06845 11.61596,-3.04999 6.05673,-6.05674 15.16349,1.51418 4.54256,10.62092 3.52588,1.5142 4.04503,-1.01668 -0.4975,-10.10177 7.0734,-12.63262 1.51418,-13.62768 1.51419,-10.62092 -5.0617,-20.70108 1.51418,-18.19185 19.44646,-26.49824 11.61597,3.78547 -4.02341,14.38475 -7.07341,-0.49752 -5.32127,3.28795 6.57588,13.13015 6.05674,-5.55923 8.58759,2.0117 8.09008,-9.58262 5.79716,-3.8071 6.83547,1.01667 -2.53085,11.37802 8.06844,8.06845 6.07838,-5.55923 -1.01667,-14.14681 23.23193,-27.25532 1.01666,-10.62094 7.8305,-17.93228 -8.34966,-7.31135 -7.0734,-10.10178 -13.62766,-5.55921 -33.83122,6.55425 -16.18016,-9.58262 -7.0734,-12.13512 -12.11348,7.59255 13.88724,-15.42304 0.25957,-8.32803 -6.05674,-5.04007 4.54256,-4.56419 0.49752,-10.59929 -8.5876,-16.15851 1.01667,-26.2603 3.52588,-15.661 10.10178,-16.15852 3.02837,-15.16348 13.15179,-22.21526 9.58262,-8.58759 -3.52589,-29.80781 1.51419,-19.18689 1.51418,-4.54256 -5.55921,-11.61595 -6.5759,-6.07838 -3.52588,-18.17022 6.05673,-14.64433 15.16349,-15.66101 7.57092,-3.5475199 -2.0117,-6.55425011 z M 438.85232,107.527 l -36.85959,6.05673 -8.09008,12.11349 17.1752,6.57589 15.16348,-7.57093 -1.51419,-8.09008 11.61597,-0.49752 2.50921,-8.58758 z m -311.6409,85.85429 -14.1252,11.11845 -15.163473,2.53084 -5.559233,3.02837 -1.514185,10.5993 1.016668,8.58758 -13.649297,6.05675 -3.525889,11.61596 5.040074,1.01667 6.07837,8.09007 15.639375,3.52588 22.73442,-29.28866 -9.58264,-7.0734 4.0234,-12.1351 7.59256,1.5358 0.99505,-19.20851 z m 377.81079,61.1298 -30.30533,3.02838 15.66099,14.12518 14.64434,-17.15356 z m 90.41847,150.01248 -26.26029,9.08512 -9.60426,7.57092 -15.14184,10.10178 -13.13015,11.11844 2.0117,5.55922 17.6727,-3.02837 5.0617,9.58264 3.02838,46.98299 -6.05675,-26.77944 -6.07837,-17.67271 -10.59929,-3.52588 -0.49752,6.55426 5.04007,13.13015 -11.61596,11.11843 -1.01666,3.02837 1.51417,12.63264 -3.02836,4.54254 -5.04007,8.5876 -7.57093,-19.70604 -1.01667,-2.53085 -17.17518,0.51915 4.04504,-6.57588 11.61596,-0.49753 -6.57589,-19.18688 -0.99503,-5.0617 13.62765,4.54255 -4.04503,-9.58263 8.09008,-5.55921 -2.53086,-7.07342 -20.70107,7.57093 -12.63263,-6.05675 -15.661,0 -20.70106,-9.60425 -2.53087,11.61596 25.26526,3.54753 9.58264,8.06843 -2.0117,13.64929 -19.70604,7.57093 2.03333,9.08511 -8.09008,9.60426 -18.19185,3.02837 2.03334,8.09008 -8.5876,-2.03334 1.51418,-6.55425 -0.51914,-3.02837 -10.10178,3.52588 -19.18688,-3.02837 -11.11845,5.55922 30.30533,13.13015 -22.71277,2.0117 5.04008,5.55923 22.23688,4.04503 4.02341,18.68937 -9.58264,13.13015 9.58264,-1.51419 7.0734,27.77449 -8.58759,4.04504 8.09007,9.08511 3.02838,7.59255 4.04503,11.09681 1.51418,17.69434 9.08513,2.50922 14.1468,-5.04007 6.05675,0 20.7227,10.10178 6.05674,0 7.57092,-3.02838 7.0734,8.06847 9.08512,3.5475 -13.62766,6.0568 0.49751,2.5307 12.13511,11.616 -3.54752,0 -16.65604,0.4976 30.30534,15.661 4.02341,0 18.68937,7.0734 16.67766,-8.0901 -5.0617,-21.7177 5.55922,-0.9951 0.51915,-7.0734 -18.68937,-8.0901 -0.51915,-6.05669 7.0734,0.49751 16.15853,-17.17518 30.30533,1.01666 8.09008,-9.60426 -3.02838,-13.13014 -13.13015,-18.17022 -25.26526,-16.18016 10.62093,-21.19858 16.15853,-13.13015 12.63262,0.49752 4.54256,-2.0117 6.55425,6.55425 6.07837,4.04503 11.61597,-8.09006 -1.01667,-8.58759 -6.05674,-24.74612 -5.0617,-24.74611 -8.06845,-16.65603 0,-4.56419 8.06845,-26.26029 0.51914,-9.08512 -35.36704,-17.6727 z m -247.50435,29.78619 -9.58264,7.59255 4.04505,10.5993 6.55426,4.54255 0.49751,8.5876 -9.58263,5.55921 3.02838,24.2486 16.15852,-2.53085 6.05673,-28.29363 -7.0734,1.01667 3.54751,-12.63262 -8.58759,-5.04009 -5.0617,-13.64929 z m 302.05828,80.31669 -3.02837,3.02837 12.11348,21.22023 1.01667,-23.75107 -10.10178,-0.49753 z m -343.97958,15.66101 -48.9947,23.23193 -6.05674,0 -9.60426,-9.60427 -16.65603,11.61597 1.01666,3.54752 8.58759,6.55426 3.52589,5.55921 5.55922,9.60427 0,3.02837 -6.05674,1.01666 -1.01666,1.51419 4.04503,8.06844 8.5876,0 2.50922,1.51419 -0.99504,27.27696 10.5993,4.54255 2.03333,3.05 -2.53085,18.66768 3.02837,2.0334 7.0734,0 -1.51418,-13.13015 4.54256,2.0117 7.57092,-2.53085 8.09008,12.6327 -7.59256,5.5592 -5.04007,4.0449 17.17518,7.5709 2.53085,-5.5591 4.02341,0 19.20852,10.1018 20.70107,3.5475 11.61596,-6.0784 10.10178,1.0168 12.13512,-4.5427 1.51418,-8.5875 4.0234,-19.18695 -0.99504,-24.74611 0.99504,-3.02838 5.55923,-2.03333 -7.07341,-13.62766 -11.09681,-18.19185 -3.02837,-6.5759 4.54255,-3.02836 3.02837,-2.50922 -10.62092,-19.20852 -7.05177,-10.5993 -2.53087,16.15852 3.52589,9.60427 -16.15851,12.11347 -7.57093,-2.53086 6.05674,-8.56595 0,-9.10674 6.5759,1.51418 -8.58761,-8.58759 -3.54751,-7.0734 -13.62767,-6.55427 -12.13511,-1.51418 z m -266.172105,29.78617 -5.061705,6.07838 13.649297,28.272 3.028369,-22.21526 -9.10674,-11.11845 -2.509221,-1.01667 z m 12.113479,65.67238 -4.542555,7.07341 0,22.73437 8.090075,4.0235 5.040072,-5.0402 3.547521,-24.74604 -3.547521,-3.02838 -8.587592,-1.01666 z m 348.002996,21.71778 -4.0234,0.4975 -11.11845,9.6043 0,16.1585 -23.75107,28.2936 -0.49752,3.0284 3.02836,4.5425 0.51916,6.0567 -5.55923,2.5309 -3.54752,3.0284 -2.0117,7.5709 9.08511,23.2536 37.87626,-96.9944 0,-3.0283 0,-4.5426 z m -43.93299,26.2603 -13.62767,4.5426 -2.53086,3.0499 -2.03333,3.0284 7.07341,13.1301 11.11845,-1.5141 6.57588,-9.1068 -5.55922,-5.0401 -1.01666,-8.09 z m 232.83839,2.5308 -2.50922,11.1185 -4.04504,3.5258 -11.11845,0 -4.54255,11.1185 0,5.5592 13.62767,9.0851 10.10177,-17.6726 11.11844,-1.0168 12.63264,-0.4975 16.15852,0.9951 -3.5259,-16.6561 -28.29363,-5.0617 -9.60425,-0.4975 z m -298.51076,16.6778 30.82447,35.8428 3.02837,-0.9951 13.62767,-5.5592 -2.50923,-9.0851 -7.59255,0.4976 -4.54256,-8.5876 -3.52588,4.045 -24.24859,-15.661 -5.0617,-0.4974 z m 134.3731,3.0283 -14.66597,14.1467 13.64931,19.1869 -8.09008,5.0401 -5.55923,-1.5141 -5.04007,4.5424 0,2.0334 8.5876,10.5993 19.18689,4.045 18.68936,10.5994 21.71775,19.7059 13.13015,-10.1017 9.10673,-3.0284 7.0734,-0.4974 21.71775,4.5425 2.50922,-1.0167 -1.51418,-7.571 -0.38937,-2.3361 16.56951,29.6132 5.53759,-1.5142 -4.02341,-16.1802 3.52589,-19.1869 8.09008,-5.5591 9.58263,-13.6278 10.10177,-11.616 -6.05674,-13.1301 -21.22022,-5.0616 -1.51418,-2.531 -4.02341,-5.04 -10.10177,2.0117 -2.53086,-0.9951 -6.57588,-5.5591 -16.65604,1.5141 0,4.5426 8.58759,10.1018 0.49751,9.0851 8.09008,12.6326 5.5376,15.1419 -3.5259,6.5758 0,8.1334 -1.01666,-6.1216 4.04503,-9.0851 -4.54255,-12.6327 -6.57589,-9.085 -7.0734,-12.1136 -10.10178,-2.5308 -0.99504,10.1017 -8.09008,0 -2.0117,1.5142 6.05674,8.09 -25.76277,-13.6492 -11.61597,-11.616 -3.52588,-7.5708 -8.5876,-3.0284 -20.20355,0 z"
     id="path1950" />
  <path
     style="fill:#ffffff;fill-opacity:1;fill-rule:nonzero;stroke:none"
     d="m 254.18664,62.44754 -5.29965,6.25142 -19.77093,42.44045 -14.92554,18.97057 -25.0922,15.12022 -18.51633,3.78546 -20.50639,-5.71063 -8.63085,1.51417 -1.90354,0.69221 0,34.0259 4.95354,-1.1032 10.8156,-6.22978 13.19505,12.07022 4.62908,0.38936 22.40993,-9.561 33.70143,-5.86206 12.65428,-0.21632 8.00355,-6.33794 4.28297,2.27128 0,-102.51033 z m 0,111.83338 -21.99894,1.44929 -12.65427,18.60285 -3.69893,0.2812 0.60567,-8.69574 -29.61314,-3.02837 -15.1851,11.76738 -7.98192,13.15177 4.91028,14.01703 -6.98688,9.92873 2.94184,10.12341 5.4727,2.50922 -7.76561,14.23333 -1.5358,5.8188 4.91027,5.25639 7.37625,-10.10177 6.61915,8.24149 -2.57412,21.47979 11.68086,2.59575 2.31454,1.99007 -4.10993,6.46773 -11.72412,0.0649 -2.96348,-2.83369 -1.23297,-20.54965 -15.44469,2.24964 -7.63582,11.78901 -3.56915,-12.37305 11.74575,-14.88227 2.81206,-12.80569 -9.12838,-19.48972 -10.23155,-0.15142 0,106.96635 -108.999708,0 6.013477,8.13334 -4.304611,5.90532 -6.100003,-6.64077 -12.697523,-7.39789 0.90851,41.31563 -8.9985841,19.48972 0.5624116,25.93584 5.1698605,2.24964 3.590781,-2.44433 -0.692198,-26.58477 20.354973,21.93406 12.762416,29.52661 -3.612413,3.22306 96.042611,0 0,260.11535 12.91383,3.2014 2.85531,12.1568 3.24469,-2.466 14.66596,2.4228 5.14823,-7.6359 6.66242,3.2446 10.90212,-12.1783 6.87874,-0.7138 6.07836,-12.4163 6.18654,4.2612 -4.26135,5.3647 1.10318,8.8038 7.59256,1.0815 7.03015,7.982 6.33795,-9.5178 -7.44114,-8.5659 6.33795,-2.6174 6.61914,4.521 13.08689,0.6922 -4.99681,2.9201 2.5741,4.1749 5.12661,0.995 0,-40.3854 -9.04185,-10.0153 -20.11702,-6.857 -11.63761,4.6939 5.62412,5.8837 2.33618,4.5209 10.57766,3.699 6.44611,11.1185 -3.7422,-2.0984 -6.25142,0.4759 -1.66561,-2.3361 -14.60107,-8.0036 -10.27483,-8.8471 -8.37127,3.6773 -6.01349,-0.2164 -0.5624,-6.0567 8.78226,-1.7738 1.3844,-4.11 -4.06667,-11.5294 12.97874,-16.59106 6.53262,2.50923 11.03192,-17.86739 -8.84717,-8.89043 -2.31453,-35.4752 8.78227,-8.02518 -5.62412,-8.78227 -10.90213,-0.73547 7.83049,-5.66738 11.39966,-0.17304 20.52802,-19.72766 0.54079,-3.69895 -13.28157,-3.24467 -3.37447,-10.44788 -14.73086,-7.11667 7.50603,-2.01171 23.88087,7.8305 9.25815,-2.4227 0,-57.12802 52.28265,0 3.24468,-23.51315 -5.19149,-21.04716 1.29787,-18.99221 19.4032,-25.74114 11.31312,3.56915 -4.13155,14.03865 -6.33795,-0.30284 -5.49433,3.56915 6.90035,12.09186 5.79717,-4.23973 8.30639,1.25462 8.02517,-9.47448 6.72732,-3.48262 6.4461,1.49255 -2.07659,10.55603 7.8305,7.83051 5.3429,-5.40781 -0.71383,-13.67093 23.53477,-28.01242 0.51915,-10.75071 2.16312,-4.41278 -145.18872,0 0,-164.07276 z m 340.79979,230.48059 -25.04895,8.13335 -24.48652,16.95886 -13.86562,12.39469 1.96844,5.51597 16.85072,-2.7688 4.54255,8.00356 69.15499,0 6.48938,-20.67945 0.58404,-9.64752 -36.18903,-17.91066 z m -247.41783,29.50499 -9.21491,7.44113 3.89362,10.59929 1.81704,0.69222 17.28332,0 -8.39291,-5.10498 -5.38616,-13.62766 z m 101.75323,0 -2.59575,11.2266 25.30853,3.93687 4.26135,3.56917 40.62342,0 4.19646,-4.13157 -2.01171,-6.05674 -20.0305,6.87872 -13.25994,-5.51596 -15.74753,-0.54078 -20.74433,-9.36631 z m -434.873952,1.81701 -6.9219891,2.37944 3.2014201,14.53619 7.614188,0 -3.893619,-16.91563 z m 226.716772,107.70183 -16.59114,11.81064 1.16809,3.56915 8.58758,6.68405 9.15,14.86064 0.38937,2.79043 -6.64078,1.23298 -0.97341,1.6007 4.86703,8.24149 7.22482,-0.0865 2.92022,1.49256 -0.77873,27.1688 3.69894,1.99008 0,-71.59933 -3.30957,-0.32446 -9.71242,-9.43121 z"
     id="rect2881" />
  <path
     style="fill:none;stroke:#d00c33;stroke-width:1.89999998;stroke-linecap:butt;stroke-linejoin:round;stroke-miterlimit:4;stroke-opacity:1;stroke-dasharray:none"
     d="M 362.60229,0.94999999 348.953,2.46418 l -31.81952,30.80286 -22.73441,5.55921 -21.71775,2.0117 -23.72943,27.79613 -19.70605,42.41881 -15.14185,19.18688 -24.76773,15.16348 -18.68937,3.52589 -20.70108,-5.5376 -8.58758,1.51419 -27.77449,10.5993 -25.265264,-6.05674 -33.333702,37.87625 -21.717739,39.90959 -2.011702,19.1869 5.55922,4.54255 3.525889,-0.49752 0.497517,-11.61596 7.592558,16.15852 26.260294,28.79114 8.587593,-5.55921 -0.51915,-14.64434 -4.542554,-4.54255 -12.113481,0.99503 6.05674,-4.54256 0,-4.04503 -2.011703,-3.02837 1.514185,-2.0117 0.497518,-9.08512 -1.514184,-8.58759 16.677665,-13.6493 0.497519,-9.08511 7.570925,-11.61595 8.090076,0 14.64434,-9.60426 0,-2.01171 26.2603,-4.30461 11.11844,-6.31632 13.62767,12.39469 3.54751,0.23795 22.73441,-9.58263 33.83121,-6.07837 13.13015,0 7.57094,-6.55426 12.63262,7.57092 -6.05674,4.04504 -24.2486,2.0117 -13.13014,18.68938 -3.52588,0 1.75212,-9.34469 -30.04576,-2.7688 -16.15851,12.11349 -7.57093,14.1468 5.5376,12.11349 -7.57093,10.10178 3.02837,10.62092 6.05674,2.53085 -8.06844,13.62766 -1.51419,6.57589 5.04008,5.5376 7.0734,-10.59931 6.57589,8.09008 -2.53085,21.71775 11.61595,2.50922 2.53087,2.03333 -4.54257,6.55426 -12.1351,0 -2.53086,-2.50923 -0.49751,-20.72269 -15.89895,2.27128 -7.83049,11.87553 -3.02838,-12.63263 11.09682,-15.14185 3.02837,-12.63263 -9.3447,-19.44647 -20.20355,0.49753 -12.37304,18.45142 7.07341,5.55922 -4.28299,4.02341 -9.34468,-0.49753 -6.05675,12.63265 -12.135116,4.54255 10.101786,12.63263 1.01666,3.52588 -5.061703,15.66101 -13.627668,-2.01171 -6.05674,-13.6493 -12.135111,-1.01666 -16.158519,-8.06845 -10.101777,1.01667 -9.604259,-11.11844 -1.514185,-18.68937 -6.05674,4.54254 -5.040074,14.14683 -6.078371,50.24931 -0.497518,6.05674 9.604259,-10.85887 11.356387,6.07837 -7.570924,-0.25958 -1.773759,2.7688 13.649295,18.68937 -4.045036,6.57589 -6.57589,-7.0734 -13.130147,-7.57094 1.514185,41.9213 -8.587592,18.17022 0.2595747,26.77945 4.8021293,2.0117 3.287944,-2.27129 -0.259575,-27.01737 20.203556,22.21525 13.130147,29.80782 -25.762776,18.68937 -6.554258,-32.83619 -7.8305001,2.79044 7.3113501,30.54327 0,21.22021 L 0.94999999,534.3325 16.611,545.94846 l 11.096812,16.15852 6.078372,-4.04505 -9.604259,-17.67269 0.497517,-7.07341 6.575891,0 15.660999,27.27697 23.231924,5.55921 4.045037,3.52589 3.525889,31.81951 -3.525889,16.15852 5.537592,20.20356 -8.068444,28.7912 5.040073,23.751 -3.02837,8.5877 6.575889,3.5258 18.689384,-2.5093 14.644323,1.5142 17.17519,9.5827 21.71774,5.0616 2.53085,12.6111 3.52589,-3.0284 15.16347,2.5309 5.04008,-7.5709 6.05675,3.5258 11.11843,-12.6109 7.07341,0 5.55923,-13.1518 6.55425,4.5641 -4.54255,5.5376 1.01667,8.5876 8.06844,1.0167 7.07341,8.5877 6.07837,-10.5995 -7.59256,-8.0899 6.5759,-2.531 6.55425,4.5642 15.16348,0.4976 -7.0734,3.0284 2.53085,4.045 11.35639,2.0117 12.37304,-5.5592 0,-13.6277 -27.27696,-32.3387 -20.20355,-6.5542 -12.11348,5.0401 2.0117,2.5309 4.04504,3.5475 2.53086,4.0233 10.10178,4.045 8.58758,12.6327 -6.05674,-4.0451 -5.55922,0.4975 -2.03333,-2.5091 -15.14185,-8.0902 -9.60427,-8.5874 -8.58758,4.0449 -6.05675,-0.4975 0,-6.576 8.09008,-2.0116 2.0117,-2.5308 -4.54255,-12.6326 13.13014,-16.65611 6.57589,2.50923 11.09682,-17.67271 -8.82554,-8.84716 -3.04999,-35.08583 9.86383,-8.34965 -6.05674,-9.08512 -11.61597,-0.25957 8.58759,-6.05674 11.61596,0.25958 20.20356,-19.94398 0.99503,-3.54753 -13.88724,-3.28793 -3.02837,-10.59931 -14.9039,-7.0734 7.57093,-2.27129 23.75107,8.09008 24.7461,-6.57588 5.55924,-8.09008 -3.02837,-5.53759 3.52588,-12.13511 -20.70107,-8.06845 11.61596,-3.04999 6.05673,-6.05674 15.16349,1.51418 4.54256,10.62092 3.52588,1.5142 4.04503,-1.01668 -0.4975,-10.10177 7.0734,-12.63262 1.51418,-13.62768 1.51419,-10.62092 -5.0617,-20.70108 1.51418,-18.19185 19.44646,-26.49824 11.61597,3.78547 -4.02341,14.38475 -7.07341,-0.49752 -5.32127,3.28795 6.57588,13.13015 6.05674,-5.55923 8.58759,2.0117 8.09008,-9.58262 5.79716,-3.8071 6.83547,1.01667 -2.53085,11.37802 8.06844,8.06845 6.07838,-5.55923 -1.01667,-14.14681 23.23193,-27.25532 1.01666,-10.62094 7.8305,-17.93228 -8.34966,-7.31135 -7.0734,-10.10178 -13.62766,-5.55921 -33.83122,6.55425 -16.18016,-9.58262 -7.0734,-12.13512 -12.11348,7.59255 13.88724,-15.42304 0.25957,-8.32803 -6.05674,-5.04007 4.54256,-4.56419 0.49752,-10.59929 -8.5876,-16.15851 1.01667,-26.2603 3.52588,-15.661 10.10178,-16.15852 3.02837,-15.16348 13.15179,-22.21526 9.58262,-8.58759 -3.52589,-29.80781 1.51419,-19.18689 1.51418,-4.54256 -5.55921,-11.61595 -6.5759,-6.07838 -3.52588,-18.17022 6.05673,-14.64433 15.16349,-15.66101 7.57092,-3.5475199 -2.0117,-6.55425011 z M 438.85232,107.527 l -36.85959,6.05673 -8.09008,12.11349 17.1752,6.57589 15.16348,-7.57093 -1.51419,-8.09008 11.61597,-0.49752 2.50921,-8.58758 z m -311.6409,85.85429 -14.1252,11.11845 -15.163473,2.53084 -5.559233,3.02837 -1.514185,10.5993 1.016668,8.58758 -13.649297,6.05675 -3.525889,11.61596 5.040074,1.01667 6.07837,8.09007 15.639375,3.52588 22.73442,-29.28866 -9.58264,-7.0734 4.0234,-12.1351 7.59256,1.5358 0.99505,-19.20851 z m 377.81079,61.1298 -30.30533,3.02838 15.66099,14.12518 14.64434,-17.15356 z m 90.41847,150.01248 -26.26029,9.08512 -9.60426,7.57092 -15.14184,10.10178 -13.13015,11.11844 2.0117,5.55922 17.6727,-3.02837 5.0617,9.58264 3.02838,46.98299 -6.05675,-26.77944 -6.07837,-17.67271 -10.59929,-3.52588 -0.49752,6.55426 5.04007,13.13015 -11.61596,11.11843 -1.01666,3.02837 1.51417,12.63264 -3.02836,4.54254 -5.04007,8.5876 -7.57093,-19.70604 -1.01667,-2.53085 -17.17518,0.51915 4.04504,-6.57588 11.61596,-0.49753 -6.57589,-19.18688 -0.99503,-5.0617 13.62765,4.54255 -4.04503,-9.58263 8.09008,-5.55921 -2.53086,-7.07342 -20.70107,7.57093 -12.63263,-6.05675 -15.661,0 -20.70106,-9.60425 -2.53087,11.61596 25.26526,3.54753 9.58264,8.06843 -2.0117,13.64929 -19.70604,7.57093 2.03333,9.08511 -8.09008,9.60426 -18.19185,3.02837 2.03334,8.09008 -8.5876,-2.03334 1.51418,-6.55425 -0.51914,-3.02837 -10.10178,3.52588 -19.18688,-3.02837 -11.11845,5.55922 30.30533,13.13015 -22.71277,2.0117 5.04008,5.55923 22.23688,4.04503 4.02341,18.68937 -9.58264,13.13015 9.58264,-1.51419 7.0734,27.77449 -8.58759,4.04504 8.09007,9.08511 3.02838,7.59255 4.04503,11.09681 1.51418,17.69434 9.08513,2.50922 14.1468,-5.04007 6.05675,0 20.7227,10.10178 6.05674,0 7.57092,-3.02838 7.0734,8.06847 9.08512,3.5475 -13.62766,6.0568 0.49751,2.5307 12.13511,11.616 -3.54752,0 -16.65604,0.4976 30.30534,15.661 4.02341,0 18.68937,7.0734 16.67766,-8.0901 -5.0617,-21.7177 5.55922,-0.9951 0.51915,-7.0734 -18.68937,-8.0901 -0.51915,-6.05669 7.0734,0.49751 16.15853,-17.17518 30.30533,1.01666 8.09008,-9.60426 -3.02838,-13.13014 -13.13015,-18.17022 -25.26526,-16.18016 10.62093,-21.19858 16.15853,-13.13015 12.63262,0.49752 4.54256,-2.0117 6.55425,6.55425 6.07837,4.04503 11.61597,-8.09006 -1.01667,-8.58759 -6.05674,-24.74612 -5.0617,-24.74611 -8.06845,-16.65603 0,-4.56419 8.06845,-26.26029 0.51914,-9.08512 -35.36704,-17.6727 z m -247.50435,29.78619 -9.58264,7.59255 4.04505,10.5993 6.55426,4.54255 0.49751,8.5876 -9.58263,5.55921 3.02838,24.2486 16.15852,-2.53085 6.05673,-28.29363 -7.0734,1.01667 3.54751,-12.63262 -8.58759,-5.04009 -5.0617,-13.64929 z m 302.05828,80.31669 -3.02837,3.02837 12.11348,21.22023 1.01667,-23.75107 -10.10178,-0.49753 z m -343.97958,15.66101 -48.9947,23.23193 -6.05674,0 -9.60426,-9.60427 -16.65603,11.61597 1.01666,3.54752 8.58759,6.55426 3.52589,5.55921 5.55922,9.60427 0,3.02837 -6.05674,1.01666 -1.01666,1.51419 4.04503,8.06844 8.5876,0 2.50922,1.51419 -0.99504,27.27696 10.5993,4.54255 2.03333,3.05 -2.53085,18.66768 3.02837,2.0334 7.0734,0 -1.51418,-13.13015 4.54256,2.0117 7.57092,-2.53085 8.09008,12.6327 -7.59256,5.5592 -5.04007,4.0449 17.17518,7.5709 2.53085,-5.5591 4.02341,0 19.20852,10.1018 20.70107,3.5475 11.61596,-6.0784 10.10178,1.0168 12.13512,-4.5427 1.51418,-8.5875 4.0234,-19.18695 -0.99504,-24.74611 0.99504,-3.02838 5.55923,-2.03333 -7.07341,-13.62766 -11.09681,-18.19185 -3.02837,-6.5759 4.54255,-3.02836 3.02837,-2.50922 -10.62092,-19.20852 -7.05177,-10.5993 -2.53087,16.15852 3.52589,9.60427 -16.15851,12.11347 -7.57093,-2.53086 6.05674,-8.56595 0,-9.10674 6.5759,1.51418 -8.58761,-8.58759 -3.54751,-7.0734 -13.62767,-6.55427 -12.13511,-1.51418 z m -266.172105,29.78617 -5.061705,6.07838 13.649297,28.272 3.028369,-22.21526 -9.10674,-11.11845 -2.509221,-1.01667 z m 12.113479,65.67238 -4.542555,7.07341 0,22.73437 8.090075,4.0235 5.040072,-5.0402 3.547521,-24.74604 -3.547521,-3.02838 -8.587592,-1.01666 z m 348.002996,21.71778 -4.0234,0.4975 -11.11845,9.6043 0,16.1585 -23.75107,28.2936 -0.49752,3.0284 3.02836,4.5425 0.51916,6.0567 -5.55923,2.5309 -3.54752,3.0284 -2.0117,7.5709 9.08511,23.2536 37.87626,-96.9944 0,-3.0283 0,-4.5426 z m -43.93299,26.2603 -13.62767,4.5426 -2.53086,3.0499 -2.03333,3.0284 7.07341,13.1301 11.11845,-1.5141 6.57588,-9.1068 -5.55922,-5.0401 -1.01666,-8.09 z m 232.83839,2.5308 -2.50922,11.1185 -4.04504,3.5258 -11.11845,0 -4.54255,11.1185 0,5.5592 13.62767,9.0851 10.10177,-17.6726 11.11844,-1.0168 12.63264,-0.4975 16.15852,0.9951 -3.5259,-16.6561 -28.29363,-5.0617 -9.60425,-0.4975 z m -298.51076,16.6778 30.82447,35.8428 3.02837,-0.9951 13.62767,-5.5592 -2.50923,-9.0851 -7.59255,0.4976 -4.54256,-8.5876 -3.52588,4.045 -24.24859,-15.661 -5.0617,-0.4974 z m 134.3731,3.0283 -14.66597,14.1467 13.64931,19.1869 -8.09008,5.0401 -5.55923,-1.5141 -5.04007,4.5424 0,2.0334 8.5876,10.5993 19.18689,4.045 18.68936,10.5994 21.71775,19.7059 13.13015,-10.1017 9.10673,-3.0284 7.0734,-0.4974 21.71775,4.5425 2.50922,-1.0167 -1.51418,-7.571 -0.38937,-2.3361 16.56951,29.6132 5.53759,-1.5142 -4.02341,-16.1802 3.52589,-19.1869 8.09008,-5.5591 9.58263,-13.6278 10.10177,-11.616 -6.05674,-13.1301 -21.22022,-5.0616 -1.51418,-2.531 -4.02341,-5.04 -10.10177,2.0117 -2.53086,-0.9951 -6.57588,-5.5591 -16.65604,1.5141 0,4.5426 8.58759,10.1018 0.49751,9.0851 8.09008,12.6326 5.5376,15.1419 -3.5259,6.5758 0,8.1334 -1.01666,-6.1216 4.04503,-9.0851 -4.54255,-12.6327 -6.57589,-9.085 -7.0734,-12.1136 -10.10178,-2.5308 -0.99504,10.1017 -8.09008,0 -2.0117,1.5142 6.05674,8.09 -25.76277,-13.6492 -11.61597,-11.616 -3.52588,-7.5708 -8.5876,-3.0284 -20.20355,0 z"
     id="path2818" />
</svg>
