<svg xmlns="http://www.w3.org/2000/svg" width="661.046" height="794.9" version="1"><path d="M362.602.95l-13.649 1.514-31.82 30.803-22.734 5.56-21.718 2.011-23.73 27.796-19.705 42.419-15.142 19.187-24.768 15.163-18.69 3.526-20.7-5.537-8.588 1.514-27.774 10.599-25.266-6.057-33.333 37.877-21.718 39.91-2.012 19.186 5.56 4.543 3.525-.498.498-11.616 7.593 16.159 26.26 28.79 8.587-5.558-.519-14.645-4.542-4.542-12.114.995 6.057-4.543v-4.045l-2.012-3.028 1.514-2.012.498-9.085-1.514-8.588L87.323 215.1l.498-9.085 7.57-11.616h8.091l14.644-9.604v-2.012l26.26-4.305 11.119-6.316 13.628 12.395 3.547.238 22.735-9.583 33.83-6.078h13.131l7.57-6.555 12.634 7.571-6.057 4.045-24.249 2.012-13.13 18.69h-3.526l1.752-9.345-30.045-2.769-16.159 12.113-7.57 14.147 5.537 12.114-7.571 10.102 3.028 10.62 6.057 2.531-8.069 13.628-1.514 6.576 5.04 5.537 7.074-10.599 6.576 8.09-2.531 21.718 11.616 2.51 2.53 2.033-4.542 6.554h-12.135l-2.53-2.51-.498-20.722-15.9 2.271-7.83 11.876-3.028-12.633 11.097-15.142 3.028-12.632-9.345-19.447-20.203.498-12.373 18.451 7.073 5.56-4.283 4.023-9.345-.498-6.056 12.633-12.135 4.542 10.101 12.633 1.017 3.526-5.062 15.66-13.627-2.01-6.057-13.65-12.135-1.017-16.159-8.068-10.102 1.016-9.604-11.118-1.514-18.69-6.057 4.543-5.04 14.147-6.078 50.25-.498 6.056 9.605-10.859 11.356 6.079-7.571-.26-1.774 2.769 13.65 18.69-4.045 6.575-6.576-7.073-13.13-7.571 1.514 41.921-8.588 18.17.26 26.78 4.802 2.011 3.288-2.27-.26-27.018 20.204 22.215 13.13 29.808-25.763 18.69-6.554-32.837-7.83 2.79 7.31 30.544v21.22L.95 534.332l15.661 11.616 11.097 16.159 6.078-4.045-9.604-17.673.497-7.073h6.576l15.661 27.277 23.232 5.559 4.045 3.526 3.526 31.82-3.526 16.158 5.538 20.203-8.069 28.792 5.04 23.75-3.028 8.588 6.576 3.526 18.69-2.51 14.644 1.515 17.175 9.583 21.718 5.061 2.53 12.611 3.526-3.028 15.164 2.531 5.04-7.57 6.057 3.525 11.118-12.611h7.074l5.559-13.152 6.554 4.564-4.543 5.538 1.017 8.587 8.069 1.017 7.073 8.588 6.078-10.6-7.592-8.09 6.576-2.53 6.554 4.564 15.163.497-7.073 3.029 2.53 4.045 11.357 2.011 12.373-5.559v-13.628l-27.277-32.338-20.203-6.554-12.114 5.04 2.012 2.53 4.045 3.548 2.53 4.023 10.103 4.045 8.587 12.633-6.056-4.045-5.56.497-2.033-2.509-15.142-8.09-9.604-8.587-8.588 4.045-6.056-.498v-6.576l8.09-2.011 2.011-2.531-4.542-12.633 13.13-16.656 6.576 2.51 11.097-17.673-8.826-8.848-3.05-35.085 9.864-8.35-6.057-9.085-11.616-.26 8.588-6.056 11.616.26 20.203-19.945.995-3.547-13.887-3.288-3.028-10.6-14.904-7.073 7.57-2.271 23.752 8.09 24.746-6.576 5.56-8.09-3.03-5.538 3.527-12.135-20.701-8.068 11.616-3.05 6.056-6.057 15.164 1.514 4.542 10.621 3.526 1.514 4.045-1.016-.497-10.102 7.073-12.633 1.514-13.628 1.515-10.62-5.062-20.702 1.514-18.191 19.446-26.499 11.616 3.786-4.023 14.385-7.073-.498-5.322 3.288 6.576 13.13 6.057-5.56 8.588 2.013 8.09-9.583 5.797-3.807 6.835 1.017-2.53 11.378 8.068 8.068 6.078-5.56-1.016-14.146 23.232-27.255 1.016-10.621 7.83-17.933-8.349-7.31-7.073-10.103-13.628-5.559-33.831 6.554-16.18-9.582-7.074-12.135-12.113 7.592 13.887-15.423.26-8.328-6.057-5.04 4.542-4.564.498-10.6-8.588-16.158 1.017-26.26 3.526-15.661 10.102-16.159 3.028-15.163 13.152-22.215 9.582-8.588-3.526-29.808 1.515-19.187 1.514-4.542-5.56-11.616-6.575-6.079-3.526-18.17 6.057-14.644 15.163-15.661 7.571-3.548L362.602.95zm76.25 106.577l-36.86 6.057-8.09 12.113 17.176 6.576 15.163-7.57-1.514-8.09 11.616-.498 2.51-8.588zm-311.64 85.854L113.085 204.5l-15.163 2.53-5.56 3.029-1.514 10.6 1.017 8.587-13.65 6.057-3.525 11.616 5.04 1.016 6.078 8.09 15.64 3.526 22.734-29.289-9.583-7.073 4.024-12.135 7.592 1.536.995-19.209zm377.81 61.13l-30.305 3.028 15.66 14.126 14.645-17.154zm90.419 150.013l-26.26 9.085-9.605 7.57-15.142 10.102-13.13 11.119 2.012 5.56 17.673-3.03 5.061 9.583 3.029 46.983-6.057-26.78-6.079-17.672-10.599-3.526-.497 6.555 5.04 13.13-11.616 11.118-1.017 3.028 1.514 12.633-3.028 4.543-5.04 8.587-7.571-19.706-1.017-2.53-17.175.519 4.045-6.576 11.616-.498-6.576-19.187-.995-5.061 13.628 4.542-4.045-9.583 8.09-5.559-2.531-7.073-20.701 7.57-12.633-6.056h-15.66l-20.702-9.604-2.53 11.616 25.265 3.547 9.582 8.069-2.011 13.649-19.706 7.57 2.033 9.086-8.09 9.604-18.192 3.029 2.033 8.09-8.587-2.034 1.514-6.554-.52-3.028-10.101 3.526-19.187-3.029-11.118 5.56 30.305 13.13-22.713 2.011 5.04 5.56 22.237 4.045 4.024 18.689-9.583 13.13 9.583-1.514 7.073 27.774-8.588 4.045 8.09 9.086 3.029 7.592 4.045 11.097 1.514 17.694 9.085 2.51 14.147-5.04h6.057l20.722 10.101h6.057l7.571-3.028 7.073 8.068 9.086 3.548-13.628 6.057.497 2.53 12.136 11.616h-3.548l-16.656.498 30.305 15.66h4.024l18.69 7.074 16.677-8.09-5.062-21.718 5.56-.995.518-7.073-18.689-8.09-.52-6.057 7.074.498 16.159-17.175 30.305 1.016 8.09-9.604-3.028-13.13-13.13-18.17-25.266-16.18 10.621-21.2L601 535.847l12.633.498 4.542-2.011 6.554 6.554 6.079 4.045 11.616-8.09-1.017-8.588-6.057-24.746-5.061-24.746-8.069-16.656v-4.564l8.069-26.26.519-9.086-35.367-17.672zM347.936 434.31l-9.582 7.592 4.045 10.6 6.554 4.542.498 8.588-9.583 5.559 3.028 24.249 16.159-2.531 6.057-28.294-7.074 1.017 3.548-12.633-8.588-5.04-5.062-13.65zm302.059 80.316l-3.029 3.029 12.114 21.22 1.016-23.751-10.101-.498zm-343.98 15.661L257.02 553.52h-6.056l-9.605-9.604-16.656 11.616 1.017 3.548 8.588 6.554 3.525 5.56 5.56 9.603v3.029l-6.057 1.016-1.017 1.515 4.045 8.068h8.588l2.51 1.514-.996 27.277 10.6 4.543 2.033 3.05-2.531 18.667 3.028 2.034h7.074l-1.515-13.13 4.543 2.011 7.57-2.53 8.091 12.632-7.593 5.56-5.04 4.044 17.176 7.571 2.53-5.559h4.024l19.208 10.102 20.701 3.547 11.616-6.078 10.102 1.017 12.135-4.543 1.514-8.587 4.024-19.187-.995-24.746.995-3.029 5.56-2.033-7.074-13.628-11.097-18.192-3.029-6.576 4.543-3.028 3.028-2.51-10.62-19.208-7.052-10.599-2.531 16.159 3.526 9.604-16.159 12.113-7.57-2.53 6.056-8.567v-9.106l6.576 1.514-8.588-8.588-3.547-7.073-13.628-6.554-12.135-1.515zM39.843 560.074l-5.062 6.078 13.65 28.272 3.028-22.215-9.107-11.119-2.51-1.016zm12.113 65.672l-4.542 7.073v22.735l8.09 4.023 5.04-5.04 3.548-24.746-3.548-3.028-8.588-1.017zm348.003 21.718l-4.023.497-11.118 9.605v16.158l-23.752 28.294-.497 3.028 3.028 4.543.52 6.056-5.56 2.531-3.547 3.029-2.012 7.57 9.085 23.254 37.876-96.994v-7.571zm-43.933 26.26l-13.627 4.543-2.531 3.05-2.033 3.028 7.073 13.13 11.118-1.514 6.576-9.107-5.559-5.04-1.017-8.09zm232.839 2.53l-2.51 11.12-4.044 3.525h-11.119l-4.542 11.119v5.559l13.627 9.085 10.102-17.673 11.118-1.016 12.633-.498 16.159.995-3.526-16.656-28.294-5.062-9.604-.497zm-298.511 16.679l30.825 35.842 3.028-.995 13.628-5.559-2.51-9.085-7.592.498-4.543-8.588-3.526 4.045-24.248-15.66-5.062-.498zm134.373 3.028l-14.666 14.147 13.65 19.187-8.09 5.04-5.56-1.514-5.04 4.542v2.033l8.588 10.6 19.187 4.045 18.689 10.6 21.718 19.705 13.13-10.102 9.107-3.028 7.073-.498 21.718 4.543 2.509-1.017-1.514-7.57-.39-2.337 16.57 29.613 5.538-1.514-4.024-16.18 3.526-19.187 8.09-5.559 9.583-13.628 10.101-11.616-6.056-13.13-21.22-5.062-1.515-2.53-4.023-5.04-10.102 2.011-2.53-.995-6.577-5.559-16.656 1.514v4.543l8.588 10.101.497 9.086 8.09 12.632 5.538 15.142-3.526 6.576v8.133l-1.016-6.121 4.045-9.085-4.543-12.633-6.576-9.085-7.073-12.114-10.102-2.53-.995 10.101h-8.09l-2.012 1.514 6.057 8.09-25.763-13.649-11.616-11.616-3.526-7.57-8.587-3.029h-20.204z" fill="#d00c33" fill-rule="evenodd"/><path d="M254.187 62.448l-5.3 6.251-19.77 42.44-14.926 18.971-25.093 15.12-18.516 3.786-20.506-5.711-8.631 1.514-1.904.692v34.026l4.954-1.103 10.815-6.23 13.195 12.07 4.63.39 22.41-9.561 33.7-5.862 12.655-.216 8.004-6.338 4.283 2.27V62.448zm0 111.833l-22 1.45-12.654 18.602-3.698.281.605-8.695-29.613-3.029-15.185 11.768-7.982 13.151 4.91 14.017-6.987 9.93 2.942 10.122 5.473 2.51-7.766 14.233-1.535 5.819 4.91 5.256 7.376-10.102 6.62 8.242-2.575 21.48 11.681 2.595 2.314 1.99-4.11 6.468-11.724.065-2.963-2.834-1.233-20.55-15.445 2.25-7.636 11.79-3.569-12.374 11.746-14.882 2.812-12.806-9.128-19.49-10.232-.15v106.966h-109l6.014 8.133-4.305 5.905-6.1-6.64-12.697-7.398.908 41.315-8.998 19.49.562 25.936 5.17 2.25 3.59-2.445-.691-26.585 20.355 21.934 12.762 29.527L43.499 453h96.042v260.115l12.914 3.202 2.855 12.157 3.245-2.466 14.666 2.422 5.148-7.635 6.663 3.244 10.902-12.178 6.879-.714 6.078-12.416 6.186 4.261-4.26 5.365 1.102 8.803 7.593 1.082 7.03 7.982 6.338-9.518-7.441-8.566 6.338-2.617 6.619 4.52 13.087.693-4.997 2.92 2.574 4.175 5.127.995V678.44l-9.042-10.016-20.117-6.857-11.638 4.694 5.624 5.884 2.336 4.52 10.578 3.7 6.446 11.118-3.742-2.098-6.251.476-1.666-2.336-14.601-8.004-10.275-8.847-8.371 3.677-6.014-.216-.562-6.057 8.782-1.774 1.385-4.11-4.067-11.529 12.979-16.591 6.532 2.51 11.032-17.868-8.847-8.89-2.314-35.476 8.782-8.025-5.624-8.782-10.902-.736 7.83-5.667 11.4-.173 20.528-19.728.54-3.699-13.281-3.244-3.375-10.448-14.73-7.117 7.506-2.012 23.88 7.83 9.259-2.422V453h52.282l3.245-23.513-5.192-21.047 1.298-18.992 19.404-25.742 11.313 3.57-4.132 14.038-6.338-.303-5.494 3.57 6.9 12.091 5.797-4.24 8.307 1.255 8.025-9.474 6.727-3.483 6.446 1.493-2.076 10.556 7.83 7.83 5.343-5.407-.714-13.671 23.535-28.013.52-10.75 2.162-4.413H254.187V174.28zm340.8 230.48l-25.05 8.134-24.486 16.959-13.866 12.394 1.969 5.516 16.85-2.768 4.543 8.003h69.155l6.49-20.68.583-9.647-36.189-17.91zm-247.418 29.506l-9.215 7.44 3.893 10.6 1.817.692h17.284l-8.393-5.105-5.386-13.627zm101.753 0l-2.596 11.226 25.309 3.937 4.261 3.57h40.623l4.197-4.132-2.012-6.057-20.03 6.879-13.26-5.516-15.748-.541-20.744-9.366zm-434.874 1.817l-6.922 2.379 3.201 14.536h7.614l-3.893-16.915zm226.717 107.701l-16.591 11.811 1.168 3.57 8.587 6.683 9.15 14.86.39 2.791-6.641 1.233-.974 1.6 4.867 8.242 7.225-.086 2.92 1.492-.778 27.17 3.699 1.99v-71.6l-3.31-.324-9.712-9.432z" fill="#fff"/><path d="M362.602.95l-13.649 1.514-31.82 30.803-22.734 5.56-21.718 2.011-23.73 27.796-19.705 42.419-15.142 19.187-24.768 15.163-18.69 3.526-20.7-5.537-8.588 1.514-27.774 10.599-25.266-6.057-33.333 37.877-21.718 39.91-2.012 19.186 5.56 4.543 3.525-.498.498-11.616 7.593 16.159 26.26 28.79 8.587-5.558-.519-14.645-4.542-4.542-12.114.995 6.057-4.543v-4.045l-2.012-3.028 1.514-2.012.498-9.085-1.514-8.588L87.323 215.1l.498-9.085 7.57-11.616h8.091l14.644-9.604v-2.012l26.26-4.305 11.119-6.316 13.628 12.395 3.547.238 22.735-9.583 33.83-6.078h13.131l7.57-6.555 12.634 7.571-6.057 4.045-24.249 2.012-13.13 18.69h-3.526l1.752-9.345-30.045-2.769-16.159 12.113-7.57 14.147 5.537 12.114-7.571 10.102 3.028 10.62 6.057 2.531-8.069 13.628-1.514 6.576 5.04 5.537 7.074-10.599 6.576 8.09-2.531 21.718 11.616 2.51 2.53 2.033-4.542 6.554h-12.135l-2.53-2.51-.498-20.722-15.9 2.271-7.83 11.876-3.028-12.633 11.097-15.142 3.028-12.632-9.345-19.447-20.203.498-12.373 18.451 7.073 5.56-4.283 4.023-9.345-.498-6.056 12.633-12.135 4.542 10.101 12.633 1.017 3.526-5.062 15.66-13.627-2.01-6.057-13.65-12.135-1.017-16.159-8.068-10.102 1.016-9.604-11.118-1.514-18.69-6.057 4.543-5.04 14.147-6.078 50.25-.498 6.056 9.605-10.859 11.356 6.079-7.571-.26-1.774 2.769 13.65 18.69-4.045 6.575-6.576-7.073-13.13-7.571 1.514 41.921-8.588 18.17.26 26.78 4.802 2.011 3.288-2.27-.26-27.018 20.204 22.215 13.13 29.808-25.763 18.69-6.554-32.837-7.83 2.79 7.31 30.544v21.22L.95 534.332l15.661 11.616 11.097 16.159 6.078-4.045-9.604-17.673.497-7.073h6.576l15.661 27.277 23.232 5.559 4.045 3.526 3.526 31.82-3.526 16.158 5.538 20.203-8.069 28.792 5.04 23.75-3.028 8.588 6.576 3.526 18.69-2.51 14.644 1.515 17.175 9.583 21.718 5.061 2.53 12.611 3.526-3.028 15.164 2.531 5.04-7.57 6.057 3.525 11.118-12.611h7.074l5.559-13.152 6.554 4.564-4.543 5.538 1.017 8.587 8.069 1.017 7.073 8.588 6.078-10.6-7.592-8.09 6.576-2.53 6.554 4.564 15.163.497-7.073 3.029 2.53 4.045 11.357 2.011 12.373-5.559v-13.628l-27.277-32.338-20.203-6.554-12.114 5.04 2.012 2.53 4.045 3.548 2.53 4.023 10.103 4.045 8.587 12.633-6.056-4.045-5.56.497-2.033-2.509-15.142-8.09-9.604-8.587-8.588 4.045-6.056-.498v-6.576l8.09-2.011 2.011-2.531-4.542-12.633 13.13-16.656 6.576 2.51 11.097-17.673-8.826-8.848-3.05-35.085 9.864-8.35-6.057-9.085-11.616-.26 8.588-6.056 11.616.26 20.203-19.945.995-3.547-13.887-3.288-3.028-10.6-14.904-7.073 7.57-2.271 23.752 8.09 24.746-6.576 5.56-8.09-3.03-5.538 3.527-12.135-20.701-8.068 11.616-3.05 6.056-6.057 15.164 1.514 4.542 10.621 3.526 1.514 4.045-1.016-.497-10.102 7.073-12.633 1.514-13.628 1.515-10.62-5.062-20.702 1.514-18.191 19.446-26.499 11.616 3.786-4.023 14.385-7.073-.498-5.322 3.288 6.576 13.13 6.057-5.56 8.588 2.013 8.09-9.583 5.797-3.807 6.835 1.017-2.53 11.378 8.068 8.068 6.078-5.56-1.016-14.146 23.232-27.255 1.016-10.621 7.83-17.933-8.349-7.31-7.073-10.103-13.628-5.559-33.831 6.554-16.18-9.582-7.074-12.135-12.113 7.592 13.887-15.423.26-8.328-6.057-5.04 4.542-4.564.498-10.6-8.588-16.158 1.017-26.26 3.526-15.661 10.102-16.159 3.028-15.163 13.152-22.215 9.582-8.588-3.526-29.808 1.515-19.187 1.514-4.542-5.56-11.616-6.575-6.079-3.526-18.17 6.057-14.644 15.163-15.661 7.571-3.548L362.602.95zm76.25 106.577l-36.86 6.057-8.09 12.113 17.176 6.576 15.163-7.57-1.514-8.09 11.616-.498 2.51-8.588zm-311.64 85.854L113.085 204.5l-15.163 2.53-5.56 3.029-1.514 10.6 1.017 8.587-13.65 6.057-3.525 11.616 5.04 1.016 6.078 8.09 15.64 3.526 22.734-29.289-9.583-7.073 4.024-12.135 7.592 1.536.995-19.209zm377.81 61.13l-30.305 3.028 15.66 14.126 14.645-17.154zm90.419 150.013l-26.26 9.085-9.605 7.57-15.142 10.102-13.13 11.119 2.012 5.56 17.673-3.03 5.061 9.583 3.029 46.983-6.057-26.78-6.079-17.672-10.599-3.526-.497 6.555 5.04 13.13-11.616 11.118-1.017 3.028 1.514 12.633-3.028 4.543-5.04 8.587-7.571-19.706-1.017-2.53-17.175.519 4.045-6.576 11.616-.498-6.576-19.187-.995-5.061 13.628 4.542-4.045-9.583 8.09-5.559-2.531-7.073-20.701 7.57-12.633-6.056h-15.66l-20.702-9.604-2.53 11.616 25.265 3.547 9.582 8.069-2.011 13.649-19.706 7.57 2.033 9.086-8.09 9.604-18.192 3.029 2.033 8.09-8.587-2.034 1.514-6.554-.52-3.028-10.101 3.526-19.187-3.029-11.118 5.56 30.305 13.13-22.713 2.011 5.04 5.56 22.237 4.045 4.024 18.689-9.583 13.13 9.583-1.514 7.073 27.774-8.588 4.045 8.09 9.086 3.029 7.592 4.045 11.097 1.514 17.694 9.085 2.51 14.147-5.04h6.057l20.722 10.101h6.057l7.571-3.028 7.073 8.068 9.086 3.548-13.628 6.057.497 2.53 12.136 11.616h-3.548l-16.656.498 30.305 15.66h4.024l18.69 7.074 16.677-8.09-5.062-21.718 5.56-.995.518-7.073-18.689-8.09-.52-6.057 7.074.498 16.159-17.175 30.305 1.016 8.09-9.604-3.028-13.13-13.13-18.17-25.266-16.18 10.621-21.2L601 535.847l12.633.498 4.542-2.011 6.554 6.554 6.079 4.045 11.616-8.09-1.017-8.588-6.057-24.746-5.061-24.746-8.069-16.656v-4.564l8.069-26.26.519-9.086-35.367-17.672zM347.936 434.31l-9.582 7.592 4.045 10.6 6.554 4.542.498 8.588-9.583 5.559 3.028 24.249 16.159-2.531 6.057-28.294-7.074 1.017 3.548-12.633-8.588-5.04-5.062-13.65zm302.059 80.316l-3.029 3.029 12.114 21.22 1.016-23.751-10.101-.498zm-343.98 15.661L257.02 553.52h-6.056l-9.605-9.604-16.656 11.616 1.017 3.548 8.588 6.554 3.525 5.56 5.56 9.603v3.029l-6.057 1.016-1.017 1.515 4.045 8.068h8.588l2.51 1.514-.996 27.277 10.6 4.543 2.033 3.05-2.531 18.667 3.028 2.034h7.074l-1.515-13.13 4.543 2.011 7.57-2.53 8.091 12.632-7.593 5.56-5.04 4.044 17.176 7.571 2.53-5.559h4.024l19.208 10.102 20.701 3.547 11.616-6.078 10.102 1.017 12.135-4.543 1.514-8.587 4.024-19.187-.995-24.746.995-3.029 5.56-2.033-7.074-13.628-11.097-18.192-3.029-6.576 4.543-3.028 3.028-2.51-10.62-19.208-7.052-10.599-2.531 16.159 3.526 9.604-16.159 12.113-7.57-2.53 6.056-8.567v-9.106l6.576 1.514-8.588-8.588-3.547-7.073-13.628-6.554-12.135-1.515zM39.843 560.074l-5.062 6.078 13.65 28.272 3.028-22.215-9.107-11.119-2.51-1.016zm12.113 65.672l-4.542 7.073v22.735l8.09 4.023 5.04-5.04 3.548-24.746-3.548-3.028-8.588-1.017zm348.003 21.718l-4.023.497-11.118 9.605v16.158l-23.752 28.294-.497 3.028 3.028 4.543.52 6.056-5.56 2.531-3.547 3.029-2.012 7.57 9.085 23.254 37.876-96.994v-7.571zm-43.933 26.26l-13.627 4.543-2.531 3.05-2.033 3.028 7.073 13.13 11.118-1.514 6.576-9.107-5.559-5.04-1.017-8.09zm232.839 2.53l-2.51 11.12-4.044 3.525h-11.119l-4.542 11.119v5.559l13.627 9.085 10.102-17.673 11.118-1.016 12.633-.498 16.159.995-3.526-16.656-28.294-5.062-9.604-.497zm-298.511 16.679l30.825 35.842 3.028-.995 13.628-5.559-2.51-9.085-7.592.498-4.543-8.588-3.526 4.045-24.248-15.66-5.062-.498zm134.373 3.028l-14.666 14.147 13.65 19.187-8.09 5.04-5.56-1.514-5.04 4.542v2.033l8.588 10.6 19.187 4.045 18.689 10.6 21.718 19.705 13.13-10.102 9.107-3.028 7.073-.498 21.718 4.543 2.509-1.017-1.514-7.57-.39-2.337 16.57 29.613 5.538-1.514-4.024-16.18 3.526-19.187 8.09-5.559 9.583-13.628 10.101-11.616-6.056-13.13-21.22-5.062-1.515-2.53-4.023-5.04-10.102 2.011-2.53-.995-6.577-5.559-16.656 1.514v4.543l8.588 10.101.497 9.086 8.09 12.632 5.538 15.142-3.526 6.576v8.133l-1.016-6.121 4.045-9.085-4.543-12.633-6.576-9.085-7.073-12.114-10.102-2.53-.995 10.101h-8.09l-2.012 1.514 6.057 8.09-25.763-13.649-11.616-11.616-3.526-7.57-8.587-3.029h-20.204z" fill="none" stroke="#d00c33" stroke-width="1.9" stroke-linejoin="round"/></svg>