<?xml version="1.0" encoding="utf-8"?>
<!-- Generator: Adobe Illustrator 19.1.0, SVG Export Plug-In . SVG Version: 6.00 Build 0)  -->
<svg xmlns="http://www.w3.org/2000/svg" xmlns:xlink="http://www.w3.org/1999/xlink" version="1.1" id="Layer_1" x="0px" y="0px" viewBox="0 0 64 64" enable-background="new 0 0 64 64" xml:space="preserve" width="512px" height="512px">
<g id="Clinking-glasses">
	<path d="M56.6230507,52.3866386c-0.1436005-0.5341988-0.6895027-0.8505974-1.2246017-0.7070007l-5.3819008,1.4424019   l-2.4139977-9.0098c-0.0014992-0.0056-0.0059013-0.0093994-0.0073013-0.0149994   c3.835907-1.6604996,6.0175018-6.7654991,5.7341003-12.7740002c0.0006981-0.016201,0.0094986-0.0296001,0.0094986-0.0459003   c0.000309-0.023201-0.0112-0.0428009-0.0126915-0.0655003c-0.0837059-1.6019993-0.335907-3.2644005-0.7861061-4.9442997   c-0.8818932-3.2901001-2.3770027-6.2559013-4.3232994-8.5771999c-0.25-0.2968006-0.6484032-0.4248009-1.0254021-0.3232002   L32.6533508,21.26264c-0.3759995,0.1005993-0.6591949,0.4102001-0.7266006,0.7929993   c-0.3595943,2.0489998-0.3757,4.2528-0.0713005,6.4939003c-0.1299-0.1581993-0.3031998-0.2796001-0.5088005-0.3346996   L16.8085499,24.32024c-0.3759003-0.1025009-0.7753944,0.0263996-1.0253944,0.3232994   c-1.9453049,2.3202991-3.4404049,5.2851009-4.323205,8.5760994c-2.1519003,8.0306015,0.0640001,15.7162018,4.9450998,17.8295021   c-0.0016994,0.0056992-0.0060997,0.0094986-0.0076008,0.0152969l-2.4140987,9.0095024l-5.3817997-1.4421997   c-0.5322008-0.1435013-1.0820003,0.1728973-1.2246003,0.7070999c-0.1426001,0.5331993,0.1738,1.0820007,0.7070003,1.2245979   l6.3472042,1.700901l0.000495,0.0003014l0.0010004,0.0000992l6.3476,1.7010002   c0.0869045,0.0234985,0.1737995,0.0341988,0.2598,0.0341988c0.4414005,0,0.8456993-0.2938995,0.9647999-0.7411995   c0.1425991-0.5331993-0.1737995-1.0820007-0.7070007-1.2246017l-5.3827991-1.4424973l2.4139996-9.0097008   c0.0013008-0.0046005-0.0002003-0.0089989,0.0009995-0.0135002c0.2822018,0.0341988,0.5659008,0.0555,0.8516006,0.0555   c2.2285061,0,4.5370998-1.0331993,6.6571999-3.0097008c2.5830002-2.4091988,4.6044998-5.9668007,5.6895008-10.0186005   c0.6953011-2.5938988,0.9524002-5.2008972,0.7751007-7.6511993c0.055706,0.2329998,0.1067047,0.4661999,0.1691971,0.6991005   c2.0438995,7.6278992,7.3428001,13.0205002,12.3965073,13.0205002c0.2677956,0,0.5346947-0.0208015,0.8007927-0.0514984   c0.0014,0.0057983-0.0004997,0.0113983,0.0009003,0.0172997l2.4141006,9.0098l-5.381794,1.4422989   c-0.5332069,0.142601-0.8496056,0.6913986-0.7071075,1.2245979c0.1202011,0.4473038,0.5235023,0.7413025,0.964901,0.7413025   c0.0858994,0,0.172802-0.0107994,0.2597008-0.0341988l12.6954002-3.402401   C56.4492493,53.4687386,56.7656479,52.919838,56.6230507,52.3866386z M16.9199505,26.4208393l13.2802048,3.5576   c0.2944946,2.1762009,0.1515942,4.6022987-0.3615055,6.9921989l-17.1040001,0.3739014   c0.1192999-1.1764984,0.3292999-2.3844986,0.6568995-3.6072998C14.1259508,30.9989395,15.3691559,28.4267387,16.9199505,26.4208393   z M24.4746494,47.1513405c-2.1865997,2.0389977-4.5351982,2.8544998-6.6083984,2.2998009   c-3.3128004-0.8877029-5.268095-4.995903-5.2447004-10.1032028l16.7030983-0.3652   C28.2927494,42.2946396,26.5959511,45.1731377,24.4746494,47.1513405z M33.7997513,23.0253391l13.2803001-3.5576   c1.5507965,2.0067997,2.794899,4.580101,3.5282974,7.3174c0.3155022,1.1779003,0.5203018,2.3418007,0.642601,3.4775009   l-16.8993988-0.1201c-0.0018997,0-0.0049019,0-0.0068016,0c-0.0527992,0-0.0984001,0.0221004-0.1489983,0.0299988   C33.6542511,27.7361393,33.4999504,25.2522392,33.7997513,23.0253391z M34.7109489,32.1452408l16.6693993,0.1184006   c0.0589027,5.1691971-1.9048004,9.3390999-5.2455978,10.2352982   C41.8754501,43.6405411,36.8994484,39.0476379,34.7109489,32.1452408z" fill="#f69a8f"/>
	<path d="M16.64645,17.9335403c1.9111996,1.1034985,7.0205002,1.2108994,7.5967064,1.2196999c0.0048943,0,0.0097942,0,0.0146942,0   c0.3563995,0,0.6875-0.1904011,0.8661995-0.5c0.1805992-0.3134003,0.1786995-0.7011013-0.0077991-1.012701   c-0.2950001-0.4951-2.9424-4.8671999-4.8526001-5.9715996c-0.8379002-0.4825001-1.8104954-0.6113997-2.7451-0.3604002   c-0.9326,0.25-1.7129002,0.8477001-2.1963005,1.6845999C14.3251553,14.7196398,14.9199505,16.9355392,16.64645,17.9335403z    M17.0546513,13.9931393c0.2158985-0.3740997,0.5645046-0.6415997,0.9825039-0.7529993   c0.139595-0.0380001,0.2801952-0.0566006,0.4208946-0.0566006c0.280201,0,0.5556011,0.0741997,0.8045998,0.2178001   c0.8008003,0.4629002,2.0869999,2.1366997,3.1192017,3.6689005c-1.8418007-0.1279011-3.9326-0.4053001-4.7354012-0.8691006   C16.8749504,15.7558393,16.6093502,14.7646399,17.0546513,13.9931393z" fill="#f69a8f"/>
	<path d="M36.1708488,14.4345398c0.1739006,0.1259995,0.3799019,0.1904001,0.5879021,0.1904001   c0.1425972,0,0.2861977-0.0303001,0.4199982-0.0928001c0.523407-0.2421999,5.148407-2.4189005,6.4433022-4.2049999   c0.5683975-0.7803001,0.7978973-1.7364006,0.6464996-2.6914005c-0.1513939-0.9531999-0.6650009-1.7911-1.4463005-2.3603997   c-1.6113014-1.1689-3.8778992-0.8105001-5.0508003,0.8017998c-1.297802,1.7851-1.9365005,6.8564-2.0057983,7.4287   C35.7226486,13.8661394,35.8779488,14.2206392,36.1708488,14.4345398z M39.388649,7.2528396   c0.3164024-0.4345002,0.8115082-0.6659999,1.3115082-0.6659999c0.3290939,0,0.6601944,0.0995998,0.9462929,0.3066998   c0.3487053,0.2539001,0.5791016,0.6289001,0.6464996,1.0556002c0.0674019,0.4267998-0.035099,0.8535004-0.2891006,1.2032003   c-0.5429001,0.7489996-2.3416939,1.8525-3.972599,2.7196999C38.3515511,10.0536394,38.8447495,8.0019398,39.388649,7.2528396z" fill="#f69a8f"/>
	<path d="M27.8593502,10.7860394c0.1914005,0.1973,0.4512005,0.3038006,0.7178059,0.3038006   c0.0858936,0,0.1727943-0.0108004,0.2587948-0.0342007c0.3505993-0.0937996,0.6220989-0.3701,0.7108994-0.7216997   c0.1406002-0.5586004,1.3603992-5.5215001,0.7891006-7.6533003c-0.517601-1.9239-2.5010014-3.0723-4.4307003-2.5576   c-0.9326,0.25-1.7119007,0.8486-2.1953011,1.6855c-0.4833984,0.8369001-0.6112995,1.8115-0.3612995,2.7441001   C23.9199505,6.6835394,27.4580498,10.3730392,27.8593502,10.7860394z M25.4423504,2.8085396   c0.2158051-0.3740001,0.5644989-0.6426001,0.9794998-0.7539001c0.1396999-0.0371001,0.2793045-0.0547,0.4179993-0.0547   c0.7139015,0,1.3701,0.4774998,1.5643997,1.1992c0.2393017,0.8936-0.0350933,2.9853997-0.3876991,4.7978997   c-1.2127991-1.3925996-2.4960003-3.0674-2.7362995-3.9618998C25.168951,3.6181395,25.2265511,3.1825395,25.4423504,2.8085396z" fill="#f69a8f"/>
</g>
<g>
</g>
<g>
</g>
<g>
</g>
<g>
</g>
<g>
</g>
<g>
</g>
<g>
</g>
<g>
</g>
<g>
</g>
<g>
</g>
<g>
</g>
<g>
</g>
<g>
</g>
<g>
</g>
<g>
</g>
</svg>
